<svg width="75" height="73" viewBox="0 0 75 73" fill="none" xmlns="http://www.w3.org/2000/svg">
<g clip-path="url(#clip0_14_30)">
<path fill-rule="evenodd" clip-rule="evenodd" d="M37.531 0C16.7773 0 0 16.7291 0 37.4253C0 53.9688 10.7498 67.9726 25.6627 72.929C27.5272 73.3016 28.2101 72.1237 28.2101 71.1329C28.2101 70.2653 28.1487 67.2913 28.1487 64.1926C17.7084 66.4236 15.5343 59.7312 15.5343 59.7312C13.8565 55.3938 11.3705 54.2791 11.3705 54.2791C7.95347 51.9864 11.6195 51.9864 11.6195 51.9864C15.4099 52.2343 17.3988 55.828 17.3988 55.828C20.7537 61.5281 26.1597 59.9175 28.3346 58.926C28.6449 56.5094 29.6398 54.8365 30.6961 53.9072C22.3693 53.0396 13.6084 49.8177 13.6084 35.4421C13.6084 31.3526 15.0988 28.0068 17.4603 25.4047C17.0877 24.4754 15.7825 20.6331 17.8337 15.4904C17.8337 15.4904 21.0026 14.4988 28.1479 19.332C31.207 18.5128 34.3619 18.096 37.531 18.0925C40.7 18.0925 43.9304 18.5267 46.9134 19.332C54.0595 14.4988 57.2284 15.4904 57.2284 15.4904C59.2796 20.6331 57.9736 24.4754 57.601 25.4047C60.0247 28.0068 61.4537 31.3526 61.4537 35.4421C61.4537 49.8177 52.6928 52.9772 44.3037 53.9072C45.6712 55.0844 46.8512 57.3146 46.8512 60.8468C46.8512 65.8655 46.7897 69.8934 46.7897 71.1321C46.7897 72.1237 47.4734 73.3016 49.3372 72.9297C64.25 67.9718 74.9998 53.9688 74.9998 37.4253C75.0613 16.7291 58.2225 0 37.531 0Z" fill="white"/>
</g>
<defs>
<clipPath id="clip0_14_30">
<rect width="75" height="73" fill="white"/>
</clipPath>
</defs>
</svg>
