<svg width="72" height="72" viewBox="0 0 72 72" fill="none" xmlns="http://www.w3.org/2000/svg">
<rect x="2.5" y="2.5" width="67" height="67" rx="17.5" stroke="white" stroke-width="5"/>
<path d="M18.7294 51V27.192H25.7854V51H18.7294ZM22.2334 23.688C21.0494 23.688 20.0894 23.352 19.3534 22.68C18.6174 22.008 18.2494 21.112 18.2494 19.992C18.2494 18.872 18.6174 17.976 19.3534 17.304C20.0894 16.632 21.0494 16.296 22.2334 16.296C23.4174 16.296 24.3774 16.632 25.1134 17.304C25.8494 17.976 26.2174 18.872 26.2174 19.992C26.2174 21.112 25.8494 22.008 25.1134 22.68C24.3774 23.352 23.4174 23.688 22.2334 23.688ZM32.0419 51V27.192H37.8019L38.2819 30.216H38.4739C39.4659 29.224 40.5859 28.376 41.8339 27.672C43.0819 26.968 44.5059 26.616 46.1059 26.616C48.7299 26.616 50.6179 27.48 51.7699 29.208C52.9219 30.904 53.4979 33.24 53.4979 36.216V51H46.4419V37.128C46.4419 35.4 46.2019 34.216 45.7219 33.576C45.2739 32.936 44.5379 32.616 43.5139 32.616C42.6179 32.616 41.8499 32.824 41.2099 33.24C40.5699 33.624 39.8659 34.184 39.0979 34.92V51H32.0419Z" fill="white"/>
</svg>
